<svg width="171" height="263" viewBox="0 0 171 263" fill="none" xmlns="http://www.w3.org/2000/svg">
<path d="M81.5473 209.206C74.4711 208.819 62.8315 208.921 56.1007 213.595C51.5834 214.307 47.2934 215.554 43.589 217.379C49.0098 210.878 54.2496 204.066 59.2197 197.076C64.4391 194.117 69.8007 192.412 75.3896 191.243C76.5573 191.816 77.7711 192.612 78.669 193.007C86.4417 197.332 92.0895 205.484 102.142 202.214C111.212 199.267 120.912 189.771 125.786 181.752C122.198 180.752 118.128 181.37 114.501 181.312C107.964 181.279 101.555 180.17 95.2031 181.032C88.6738 182.165 79.423 184.8 72.8659 188.621C69.1117 189.64 65.6733 191.059 62.1925 192.837C68.4041 183.955 73.9876 174.853 79.1203 165.263C79.3863 164.857 79.4288 164.498 79.6949 164.092C85.3577 160.458 90.7582 157.811 96.3859 155.701C97.0141 155.92 97.6422 156.138 98.1817 156.492C105.677 159.474 114.032 163.793 122.361 164.034C128.809 164.202 130.802 160.869 134.939 156.62C138.185 153.141 142.294 151.581 146.581 149.751C135 145.057 125.101 137.211 112.004 140.417C103.643 142.283 94.9856 146.66 89.792 153.697C87.3366 154.794 85.0622 156.203 82.9227 157.7C86.6826 150.497 90.219 143.341 93.7091 135.961C94.0177 135.196 94.3724 134.655 94.681 133.891C98.7863 131.748 102.622 129.429 106.638 127.423C107.267 127.641 107.806 127.995 108.569 128.302C114.808 130.847 122.237 137.46 128.791 133.056C133.205 130.149 135.545 125.109 139.331 121.984C142.091 119.54 145.221 118.885 148.436 117.513C139.06 114.457 123.004 110.116 113.63 114.41C109.031 116.422 107.222 120.65 104.874 124.525C101.929 126.074 99.1651 127.936 96.536 129.886C100.026 122.506 103.428 115.261 106.694 107.927C106.918 107.88 107.141 107.834 107.319 107.563C110.214 105.208 113.382 103.611 116.732 102.327C117.406 102.77 118.081 103.212 118.755 103.654C124.643 107.323 128.242 110.07 135.115 106.649C142.435 103.134 147.59 97.0393 154.278 92.7235C149.8 92.4936 145.229 91.8164 140.836 90.8687C137.07 90.1397 132.666 87.4443 128.819 88.0156C123.408 88.9142 120.172 94.1411 117.022 98.6501C114.12 99.8406 111.263 101.255 108.634 103.205C111.504 96.7711 114.238 90.249 117.107 83.8153C117.196 83.6801 117.285 83.5449 117.327 83.186C117.327 83.186 117.327 83.186 117.416 83.0508C117.813 82.151 118.211 81.2512 118.608 80.3515C123.7 78.4697 128.611 76.2757 133.564 73.7229C134.462 74.1184 135.136 74.5607 135.899 74.8677C142.138 77.4127 148.686 79.1931 155.108 75.283C162.332 70.7385 166.436 61.2466 170.6 54.3087C166.438 54.4794 162.449 53.7971 158.375 53.8326C150.721 54.0338 142.796 54.058 138.004 60.7773C135.606 63.8456 133.527 67.8972 130.998 71.4596C127.116 73.555 123.369 75.7388 119.668 78.1463C123.109 69.9598 126.638 61.6382 130.078 53.4518C131.281 52.5002 132.888 51.8139 134.272 51.1744C140.343 48.3878 144.445 45.6631 146.011 38.5686C148.798 26.0856 147.056 12.5664 149.125 0C145.51 1.68968 142.899 6.55252 140.589 9.48566C136.772 14.7175 133.044 19.8142 130.44 25.8422C127.312 33.8466 127.9 41.7739 130.279 49.9096C126.396 58.7721 122.558 67.8583 118.674 76.7208C118.918 72.8197 118.804 68.8769 118.331 64.8925C124.397 54.1735 122.669 42.9846 118.344 31.6391C117.023 28.0654 115.568 24.4032 114.023 20.8762C113.908 31.0504 104.183 36.4682 103.39 45.6175C102.725 53.6901 107.672 57.3219 112.404 62.1655C112.855 62.6546 113.44 63.2321 113.891 63.7211C114.737 70.0776 115.63 76.6577 115.67 83.066C115.581 83.2012 115.716 83.2897 115.716 83.2897C113.024 89.4529 110.244 95.7513 107.417 101.826C107.334 95.7766 106.757 89.5971 105.198 83.7398C106.144 77.5919 106.82 71.267 104.19 65.8672C101.921 61.0917 97.69 57.5433 94.3072 53.5842C91.7336 50.1558 89.7845 46.3634 87.0335 43.2055C86.7508 48.0481 86.6029 52.9791 85.7381 57.8267C85.0471 61.8213 83.8202 66.0447 84.8751 70.0241C86.85 77.8944 94.5266 81.1887 100.376 85.7986C100.915 86.1524 101.366 86.6414 101.906 86.9953C103.334 93.3466 104.091 99.8383 104.76 106.465C104.806 106.689 104.852 106.913 104.987 107.001C101.366 114.875 97.5208 122.796 93.7646 130.582C93.4728 126.91 92.6451 123.466 91.459 119.981C91.4222 114.155 90.4874 107.934 89.6912 102.384C87.9565 90.0298 80.3797 88.348 71.6058 81.4332C69.2668 79.7058 67.325 77.0786 64.7625 75.3979C65.5309 83.6373 63.8477 93.5562 66.8055 101.104C69.8557 109.1 77.6042 116.696 85.3695 119.855C86.5371 120.427 87.8821 120.729 88.9611 121.437C90.3319 125.817 91.2556 130.29 91.5087 134.904C87.5289 142.737 83.5491 150.569 79.4345 158.313C78.5533 153.481 77.3136 148.607 75.3147 144.008C75.7564 135.983 75.847 129.08 70.3414 122.182C66.2343 116.974 61.5915 111.995 57.126 106.746C54.2827 103.14 51.201 97.2517 47.2473 95.0453C47.9973 100.372 48.5238 105.745 49.0041 110.895C49.5841 117.657 49.2773 125.771 52.4051 131.884C55.9911 139.65 65.1438 142.753 71.7525 147.087C71.8874 147.175 72.0223 147.264 72.292 147.441C74.1136 152.31 75.6692 157.584 76.6889 163.088C76.6002 163.223 76.4229 163.494 76.3342 163.629C70.8893 173.401 64.9049 182.82 58.4697 191.749C58.1741 187.494 57.5202 183.198 56.2417 179.265C56.8681 172.134 55.163 164.441 53.1067 157.871C50.2339 149.605 44.0336 146.118 39.1099 139.215C36.7599 135.74 34.2639 130.428 30.4912 128.534C30.7443 133.148 30.8624 137.673 30.6222 142.157C30.0734 147.405 28.4068 152.887 29.7388 158.209C32.3067 167.822 43.1389 174.539 50.6953 180.075C51.5045 180.606 52.4486 181.225 53.304 181.98C54.6749 186.36 55.5099 190.968 55.8091 195.806C51.325 201.761 46.706 207.627 42.087 213.493C38.8445 217.555 35.2435 221.575 31.7312 225.46C32.3373 222.183 32.5849 218.864 32.6977 215.457C36.5426 207.536 39.1237 198.013 36.4745 189.7C33.1897 180.004 26.9063 170.468 19.9208 163.179C17.9827 161.134 15.9984 158.866 14.8622 156.187C14.3947 160.135 14.5554 164.301 14.0879 168.249C13.4042 173.409 11.3792 178.849 12.0831 183.952C13.4021 194.293 21.6051 202.961 27.3416 210.978C27.7924 211.467 28.0197 212.002 28.4705 212.491C28.8621 217.776 28.9414 223.243 28.5737 228.803C28.5737 228.803 28.485 228.939 28.6199 229.027C18.7925 239.6 8.7841 249.86 0.170584 261.229C-0.450212 262.175 0.763629 262.971 1.56548 262.337C15.0196 251.822 26.5745 238.322 37.5935 225.05C42.667 220.255 49.2351 218.181 56.169 217.314C57.2018 217.798 58.2346 218.282 59.0438 218.813C66.4081 222.289 71.644 229.011 80.4236 229.741C92.5178 230.711 101.419 222.432 111.141 216.432C100.754 216.388 91.7144 209.879 81.5473 209.206Z" fill="#83B197"/>
</svg>
