<svg width="88" height="88" viewBox="0 0 88 88" fill="none" xmlns="http://www.w3.org/2000/svg">
<path d="M35.9323 72.5811C36.4863 72.5676 36.9323 72.1081 36.9188 71.5406C36.9052 70.9865 36.4593 70.5541 35.9052 70.5541C35.8917 70.5541 35.8917 70.5541 35.8782 70.5541C35.2701 70.5676 34.662 70.5811 33.9728 70.5811C33.4188 70.5811 32.9863 71.0406 32.9863 71.5946C32.9863 72.1487 33.4728 72.6081 34.0269 72.6081C34.6755 72.6081 35.3107 72.5946 35.9323 72.5811Z" fill="#8F7880"/>
<path d="M40.4054 72.3379H40.4865C41.1487 72.2839 41.7973 72.2163 42.4324 72.1487C42.9865 72.0812 43.3919 71.5812 43.3243 71.0271C43.2568 70.4731 42.7568 70.0812 42.2027 70.1352C41.5811 70.2028 40.946 70.2704 40.3108 70.3244C39.7568 70.3785 39.3379 70.865 39.3919 71.419C39.446 71.9325 39.8919 72.3379 40.4054 72.3379Z" fill="#8F7880"/>
<path d="M29.4054 72.473H29.4595C29.9865 72.473 30.4325 72.0541 30.473 71.5135C30.5 70.9595 30.0811 70.473 29.5135 70.446C28.8784 70.4054 28.2433 70.3649 27.6081 70.3108C27.0541 70.2568 26.5676 70.6757 26.5135 71.2433C26.473 71.7973 26.8784 72.2838 27.446 72.3379C28.1081 72.3919 28.7703 72.4325 29.4054 72.473Z" fill="#8F7880"/>
<path d="M22.9189 71.8514C22.9594 71.8514 23.0135 71.8649 23.054 71.8649C23.554 71.8649 23.9865 71.5 24.054 70.9865C24.1216 70.4325 23.7432 69.919 23.1892 69.8514C22.5675 69.7703 21.9324 69.6757 21.2973 69.5811C20.7432 69.5 20.2297 69.8784 20.1486 70.4325C20.0675 70.9865 20.4459 71.5 21 71.5811C21.6351 71.6757 22.2838 71.7568 22.9189 71.8514Z" fill="#8F7880"/>
<path d="M53.0807 70.0677C53.1753 70.0677 53.2564 70.0541 53.351 70.0271C53.9861 69.8514 54.6213 69.6623 55.2294 69.4731C55.7699 69.3109 56.0672 68.7433 55.8915 68.2028C55.7294 67.6758 55.1618 67.365 54.6213 67.5406C54.0267 67.7298 53.4186 67.9055 52.7969 68.0812C52.2564 68.2298 51.9456 68.7839 52.0942 69.3244C52.2294 69.7704 52.6348 70.0677 53.0807 70.0677Z" fill="#8F7880"/>
<path d="M46.9728 71.4865C47.6215 71.3784 48.2701 71.2433 48.9052 71.1216C49.4593 71.0135 49.8107 70.473 49.689 69.9189C49.5809 69.3649 49.0404 69.0135 48.4863 69.1351C47.8782 69.2568 47.2431 69.3784 46.6215 69.5C46.0674 69.5946 45.7025 70.1216 45.7971 70.6757C45.8782 71.1622 46.3107 71.5135 46.7971 71.5135C46.8512 71.5 46.9188 71.5 46.9728 71.4865Z" fill="#8F7880"/>
<path d="M65.0539 65.3649C65.2161 65.3649 65.3782 65.3244 65.5269 65.2568C66.1215 64.946 66.7026 64.6352 67.2566 64.3244C67.7431 64.0541 67.9188 63.4325 67.635 62.946C67.3512 62.4595 66.7431 62.2838 66.2566 62.5676C65.7161 62.8649 65.162 63.1757 64.5809 63.473C64.0809 63.7298 63.8918 64.3379 64.1485 64.8379C64.3377 65.1622 64.6891 65.3649 65.0539 65.3649Z" fill="#8F7880"/>
<path d="M59.1892 68.027C59.3108 68.027 59.4324 68 59.5541 67.9595C60.1757 67.7162 60.7838 67.4595 61.3784 67.2162C61.8919 67 62.1351 66.4054 61.9054 65.8784C61.6892 65.3649 61.0811 65.1216 60.5676 65.3514C60 65.5946 59.4189 65.8379 58.8108 66.0676C58.2838 66.2703 58.027 66.8649 58.2433 67.3784C58.4054 67.7838 58.7838 68.027 59.1892 68.027Z" fill="#8F7880"/>
<path d="M86.2161 45.7298C83.2836 44.4055 79.3242 42.4325 75.135 40.3514C69.635 37.6082 63.9458 34.7838 60.5404 33.419C56.4728 31.8244 50.9323 30.1757 44.8917 28.8919C45.2566 28.5 45.2566 27.8784 44.8647 27.5L44.2566 26.8919L45.3242 25.8244L46.7971 27.2973C46.9998 27.5 47.2566 27.5946 47.5134 27.5946C47.7701 27.5946 48.0269 27.5 48.2296 27.2973C48.6215 26.9055 48.6215 26.2568 48.2296 25.8649L46.7566 24.3919L47.8242 23.3244L50.2971 25.7973C50.4998 26 50.7566 26.0946 51.0134 26.0946C51.2701 26.0946 51.5269 26 51.7296 25.7973C52.1215 25.4055 52.1215 24.7568 51.7296 24.3649L49.2566 21.8919L50.3242 20.8244L51.7971 22.2973C51.9998 22.5 52.2566 22.5946 52.5134 22.5946C52.7701 22.5946 53.0269 22.5 53.2296 22.2973C53.6215 21.9055 53.6215 21.2568 53.2296 20.8649L51.7566 19.3919L52.8242 18.3244L53.4323 18.9325C53.635 19.1352 53.8917 19.2298 54.1485 19.2298C54.4052 19.2298 54.662 19.1352 54.8647 18.9325C55.2566 18.5406 55.2566 17.8919 54.8647 17.5L54.2566 16.8919L55.5674 15.5811L55.8782 15.8919C56.4458 16.4595 57.2161 16.7838 58.0269 16.7838C58.8377 16.7838 59.608 16.473 60.1755 15.8919L61.2701 14.7973L61.5134 15.0406C61.9728 15.5 62.5809 15.7298 63.189 15.7298C63.7971 15.7298 64.4052 15.5 64.8647 15.0406L77.4323 2.47302C77.8242 2.08113 77.8242 1.43248 77.4323 1.04059C77.0404 0.648695 76.3917 0.648695 75.9998 1.04059L63.4323 13.6082C63.2971 13.7433 63.0809 13.7433 62.9593 13.6082L56.1215 6.77032C56.0404 6.68924 56.0269 6.58113 56.0269 6.52707C56.0269 6.47302 56.0404 6.37843 56.1215 6.28383L59.9458 2.45951C60.3377 2.06761 60.3377 1.41897 59.9458 1.02707C59.5539 0.635181 58.9053 0.635181 58.5134 1.02707L54.689 4.8514C53.7701 5.77032 53.7701 7.27032 54.689 8.18924L54.9323 8.43248L53.8377 9.52707C53.2701 10.0946 52.9458 10.8649 52.9458 11.6757C52.9458 12.4865 53.2566 13.2568 53.8377 13.8244L54.1485 14.1352L52.8377 15.446L52.2296 14.8379C51.8377 14.446 51.189 14.446 50.7971 14.8379C50.4052 15.2298 50.4052 15.8784 50.7971 16.2703L51.4052 16.8784L50.3377 17.946L48.8647 16.473C48.4728 16.0811 47.8242 16.0811 47.4323 16.473C47.0404 16.8649 47.0404 17.5136 47.4323 17.9055L48.9052 19.3784L47.8377 20.446L45.3512 17.9865C44.9593 17.5946 44.3107 17.5946 43.9188 17.9865C43.5269 18.3784 43.5269 19.0271 43.9188 19.419L46.3917 21.8919L45.3242 22.9595L43.8512 21.4865C43.4593 21.0946 42.8107 21.0946 42.4188 21.4865C42.0269 21.8784 42.0269 22.5271 42.4188 22.919L43.8917 24.3919L42.8242 25.4595L42.2161 24.8514C41.8242 24.4595 41.1755 24.4595 40.7836 24.8514C40.3917 25.2433 40.3917 25.8919 40.7836 26.2838L41.3917 26.8919L40.3242 27.9595L39.7161 27.3514C39.3242 26.9595 38.6755 26.9595 38.2836 27.3514C38.189 27.446 38.135 27.5406 38.0809 27.6487C25.7566 25.7838 12.8377 25.946 6.54038 31.446C3.4593 34.0136 1.70255 42.6622 0.770113 49.473C0.634978 50.473 1.0539 51.419 1.87822 51.946C2.29714 52.2163 2.78363 52.3514 3.27011 52.3514C3.7566 52.3514 4.2566 52.2163 4.70255 51.9325C4.70255 51.9325 4.71606 51.9325 4.71606 51.919C18.1755 43.2298 43.8647 43.3919 56.9188 44.8514C59.4188 45.1622 63.4728 45.8514 67.7701 46.5676C73.7836 47.5811 80.5944 48.7298 85.1215 49.1892C86.0404 49.2973 86.9053 48.7163 87.162 47.7973C87.4188 46.973 87.0269 46.1082 86.2161 45.7298ZM58.7296 14.473C58.3512 14.8514 57.6755 14.8649 57.2971 14.473L55.2566 12.419C55.0674 12.2298 54.9593 11.973 54.9593 11.7027C54.9593 11.4325 55.0674 11.1757 55.2566 10.9865L56.3377 9.90545L59.8242 13.3919L58.7296 14.473ZM37.7836 42.1892C32.0674 42.3784 26.0809 42.9595 20.4188 44.0811C20.9998 40.7163 23.4998 31.9325 33.7566 29.1487C34.0809 29.1892 34.4052 29.2163 34.7296 29.2568C34.5539 29.6352 34.608 30.0946 34.9188 30.4055L36.3917 31.8784L35.3242 32.946L32.8512 30.473C32.4593 30.0811 31.8107 30.0811 31.4188 30.473C31.0269 30.8649 31.0269 31.5136 31.4188 31.9055L33.8917 34.3784L32.8242 35.446L31.3512 33.973C30.9593 33.5811 30.3107 33.5811 29.9188 33.973C29.5269 34.3649 29.5269 35.0136 29.9188 35.4055L31.3917 36.8784L30.3242 37.946L29.7161 37.3379C29.3242 36.946 28.6755 36.946 28.2836 37.3379C27.8917 37.7298 27.8917 38.3784 28.2836 38.7703L28.8917 39.3784L28.2025 40.0676C27.8107 40.4595 27.8107 41.1082 28.2025 41.5C28.4052 41.7028 28.662 41.7973 28.9188 41.7973C29.1755 41.7973 29.4323 41.7028 29.635 41.5L30.3242 40.8109L30.9323 41.419C31.135 41.6217 31.3917 41.7163 31.6485 41.7163C31.9053 41.7163 32.162 41.6217 32.3647 41.419C32.7566 41.0271 32.7566 40.3784 32.3647 39.9865L31.7566 39.3784L32.8242 38.3109L34.2971 39.7838C34.4998 39.9865 34.7566 40.0811 35.0134 40.0811C35.2701 40.0811 35.5269 39.9865 35.7296 39.7838C36.1215 39.3919 36.1215 38.7433 35.7296 38.3514L34.2566 36.8784L35.3242 35.8109L37.7971 38.2838C37.9998 38.4865 38.2566 38.5811 38.5134 38.5811C38.7701 38.5811 39.0269 38.4865 39.2296 38.2838C39.6215 37.8919 39.6215 37.2433 39.2296 36.8514L36.7566 34.3784L37.8242 33.3109L39.2971 34.7838C39.4998 34.9865 39.7566 35.0811 40.0134 35.0811C40.2701 35.0811 40.5269 34.9865 40.7296 34.7838C41.1215 34.3919 41.1215 33.7433 40.7296 33.3514L39.2566 31.8784L40.3242 30.8109L40.9323 31.419C41.135 31.6217 41.3917 31.7163 41.6485 31.7163C41.9052 31.7163 42.162 31.6217 42.3647 31.419C42.608 31.1757 42.689 30.8379 42.6215 30.5136C48.2431 31.6217 53.4863 33.0541 57.5809 34.4865C47.0944 34.6487 42.0944 37.1487 39.7161 39.4054C38.635 40.446 38.0674 41.446 37.7836 42.1892ZM18.3377 29.0136C19.6215 28.8379 20.9593 28.7163 22.3377 28.6487C14.4052 33.9595 12.7836 43.419 12.4998 46.1217C11.3107 46.5136 10.162 46.9595 9.04038 47.4325C9.68903 43.1487 11.9458 32.3109 18.3377 29.0136ZM26.635 28.6217C27.4863 28.6487 28.3377 28.6757 29.189 28.7298C20.4998 33.0946 18.6485 41.9055 18.2971 44.5271C17.0404 44.8109 15.8107 45.1352 14.608 45.4865C15.1485 41.8379 17.4188 32.4055 26.635 28.6217ZM38.4998 29.7838L37.8377 30.446L36.9323 29.5406C37.4593 29.6217 37.9728 29.7027 38.4998 29.7838ZM43.0134 28.5C42.9053 28.4865 42.8107 28.4595 42.7025 28.4325L42.8242 28.3109L43.0134 28.5ZM3.63498 50.2298C3.41876 50.3649 3.17552 50.3784 2.99984 50.2568C2.90525 50.1892 2.7566 50.0406 2.79714 49.7433C4.01336 40.8919 5.89174 34.6217 7.87822 32.9865C9.4593 31.6082 11.5404 30.6217 13.9323 29.919C8.71606 35.5676 7.18903 45.6487 6.85119 48.4325C5.72957 49 4.64849 49.5811 3.63498 50.2298ZM40.0809 42.1352C41.4458 40.0136 46.2566 35.7703 62.8242 36.6217C64.0944 37.2028 65.5134 37.8784 66.9998 38.5946C53.9593 37.7973 48.662 41.3919 47.6485 42.2027C45.2566 42.1082 42.7161 42.0811 40.0809 42.1352ZM51.4728 42.3784C54.635 41.0676 60.9593 39.5946 72.135 41.1217C72.8377 41.473 73.5269 41.8109 74.2296 42.1622C74.6215 42.3514 74.9998 42.5406 75.3917 42.7433C67.9323 42.4325 63.1079 43 61.4188 43.4865C59.7701 43.2298 58.3107 43 57.162 42.8649C55.4593 42.6757 53.5404 42.5136 51.4728 42.3784ZM68.8377 44.7163C71.662 44.6217 75.3917 44.6622 80.0809 45.0541C81.6079 45.8109 83.0674 46.5 84.3512 47.0946C80.0944 46.6082 74.2025 45.6217 68.8377 44.7163Z" fill="#8F7880"/>
<path d="M85.081 53.5135C81.7026 54.6757 79.554 55.2433 76.4459 55.3244C76.3783 55.3244 76.3107 55.3514 76.2567 55.3649C75.9324 55.3919 75.6215 55.5406 75.4459 55.8379C75.2837 56.1081 74.4729 57.446 72.9864 59.3244C72.6486 58.8784 72.0134 58.7838 71.5675 59.1081C71.0945 59.4595 70.581 59.8244 70.0269 60.2027C69.5675 60.5136 69.4459 61.1487 69.7567 61.6081C69.9459 61.8919 70.2702 62.0541 70.5945 62.0541C70.6215 62.0541 70.6486 62.0406 70.6756 62.0406C70.1621 62.6081 69.5945 63.1892 68.9999 63.7838C68.9053 63.8514 68.8242 63.9325 68.7567 64.0271C67.6756 65.0811 66.4729 66.1622 65.1351 67.2163C65.054 67.2568 64.9864 67.3244 64.9188 67.3919C55.3918 74.8919 39.3648 81.4325 16.7432 70.7703C17.1891 70.7433 17.5945 70.4325 17.6891 69.973C17.7972 69.419 17.4459 68.8919 16.9053 68.7838C16.2837 68.6622 15.6621 68.5271 15.0269 68.3784C14.4864 68.2568 13.9324 68.5946 13.8107 69.1487C13.7972 69.2163 13.8107 69.2703 13.8107 69.3244C12.5269 68.6487 11.2161 67.919 9.8783 67.1352C9.41884 66.8649 8.081 67.2163 8.081 67.2163C5.91884 67.6352 4.83776 67.8379 1.98641 67.2433C1.43235 67.1352 0.905324 67.4865 0.783703 68.0271C0.675595 68.5811 1.02695 69.1081 1.56749 69.2298C2.98641 69.5271 4.05397 69.6487 4.98641 69.6487C6.18911 69.6487 7.18911 69.4595 8.45938 69.2027L9.17559 69.0676C10.9188 70.0946 12.6486 71.0135 14.3783 71.8649C12.081 72.446 9.74316 72.8379 7.39181 73.0271C6.83776 73.0676 6.41884 73.5676 6.45938 74.1217C6.49992 74.6487 6.94587 75.0541 7.47289 75.0541H7.55397C10.7972 74.7973 14.0269 74.1622 17.1351 73.2027H17.1486C18.1621 73.6622 19.1891 74.0811 20.1891 74.473C17.9594 75.7433 15.6486 76.8649 13.2837 77.7703C12.7567 77.973 12.4999 78.5541 12.7026 79.0811C12.8648 79.4865 13.2432 79.7298 13.6486 79.7298C13.7702 79.7298 13.8918 79.7027 14.0134 79.6622C16.8648 78.5541 19.6486 77.1892 22.2837 75.6081C22.4053 75.5406 22.4999 75.446 22.581 75.3379C23.5945 75.6892 24.5945 76.0135 25.5945 76.2973C23.6756 78.1352 21.6621 79.8784 19.5675 81.4595C19.1215 81.7973 19.0405 82.4325 19.3783 82.8784C19.581 83.1352 19.8783 83.2838 20.1891 83.2838C20.4053 83.2838 20.6215 83.2162 20.7972 83.0811C23.1351 81.2973 25.4053 79.3514 27.5269 77.2838C27.6351 77.1757 27.7161 77.0406 27.7702 76.8919C28.7972 77.1487 29.8107 77.3514 30.8242 77.5271C29.3648 79.7568 27.8107 81.9595 26.1756 84.0676C25.8378 84.5135 25.9188 85.1487 26.3648 85.4865C26.554 85.6352 26.7702 85.7027 26.9864 85.7027C27.2837 85.7027 27.5945 85.5676 27.7837 85.3108C29.554 83.0271 31.2432 80.6352 32.7972 78.2163C32.8648 78.1081 32.9053 77.9865 32.9324 77.8784C33.9459 78.0135 34.9594 78.1487 35.9729 78.2163C35.0405 80.6757 34.0405 83.1622 32.9864 85.6081C32.7702 86.1217 32.9999 86.7162 33.5134 86.946C33.6486 87 33.7837 87.0271 33.9188 87.0271C34.3107 87.0271 34.6891 86.7973 34.8513 86.419C35.9864 83.7838 37.0675 81.1217 38.054 78.473C38.081 78.419 38.0675 78.3649 38.081 78.2973C38.4864 78.3108 38.8918 78.3514 39.2972 78.3514C39.9053 78.3514 40.5134 78.3244 41.1215 78.2973C40.7296 80.8784 40.3107 83.473 39.8783 86.0811C39.7837 86.6352 40.1621 87.1487 40.7161 87.2433H40.9053C41.3918 87.2433 41.8242 86.8919 41.9053 86.3919C42.3783 83.6217 42.8107 80.8649 43.2296 78.1352C44.2567 78.0406 45.2837 77.919 46.2972 77.7433C46.4459 80.3108 46.608 82.8919 46.7837 85.4865C46.8242 86.0271 47.2702 86.4325 47.7972 86.4325H47.8648C48.4188 86.3919 48.8378 85.9054 48.8107 85.3514C48.6215 82.6757 48.4594 80.0135 48.3107 77.3649C48.8242 77.2568 49.3378 77.1487 49.8513 77.0271C50.3648 76.8919 50.8783 76.7568 51.3783 76.6081C52.054 79.0676 52.7837 81.5135 53.554 83.919C53.6891 84.3514 54.0945 84.6217 54.5134 84.6217C54.6215 84.6217 54.7161 84.6081 54.8242 84.5676C55.3513 84.3919 55.6486 83.8244 55.4729 83.2973C54.6891 80.8919 53.9729 78.4325 53.2972 75.9865C54.3378 75.6217 55.3513 75.2298 56.3242 74.7973C57.4999 77.0406 58.7702 79.2433 60.108 81.3784C60.2972 81.6892 60.6351 81.8514 60.9594 81.8514C61.1486 81.8514 61.3378 81.7973 61.4999 81.6892C61.9729 81.3919 62.108 80.7703 61.8107 80.2838C60.5134 78.2298 59.2972 76.0946 58.1486 73.9325C59.1621 73.4325 60.1351 72.9054 61.0675 72.3514C62.7297 74.2973 64.4999 76.1622 66.3648 77.8784C66.554 78.0541 66.8107 78.1487 67.054 78.1487C67.3242 78.1487 67.5945 78.0406 67.7972 77.8244C68.1756 77.4054 68.1486 76.7703 67.7432 76.3919C66.0134 74.8108 64.3783 73.0811 62.8242 71.2838C63.7837 70.6622 64.6891 70.0135 65.554 69.3514C67.6891 70.919 69.9324 72.3244 72.2702 73.5C72.4188 73.5811 72.5675 73.6081 72.7296 73.6081C73.0945 73.6081 73.4594 73.4054 73.6351 73.0541C73.8918 72.5541 73.6891 71.946 73.1891 71.6892C71.1215 70.6487 69.1215 69.419 67.2161 68.0406C68.1215 67.2973 68.9594 66.5406 69.7432 65.7973C72.2972 66.8919 74.9729 67.7298 77.7161 68.2568C77.7837 68.2703 77.8513 68.2703 77.9053 68.2703C78.3783 68.2703 78.8107 67.9325 78.9053 67.446C79.0134 66.8919 78.6486 66.3649 78.108 66.2568C75.7837 65.8108 73.5134 65.1217 71.3242 64.2433C72.1621 63.3784 72.9188 62.5406 73.581 61.7703C75.5945 62.1352 77.6621 62.3244 79.7432 62.3244C80.7026 62.3244 81.6621 62.2838 82.6215 62.2162C83.1756 62.1757 83.5945 61.6892 83.554 61.1217C83.5134 60.5541 83.0134 60.1622 82.4594 60.1892C79.9594 60.3919 77.4729 60.2973 75.054 59.946C75.9594 58.7703 76.581 57.8514 76.9053 57.3244C80.0405 57.2027 82.3783 56.5811 85.7432 55.4325C86.2702 55.2568 86.554 54.6757 86.3783 54.1487C86.1891 53.6217 85.608 53.3379 85.081 53.5135Z" fill="#8F7880"/>
</svg>
