<svg width="25" height="25" viewBox="0 0 25 25" fill="none" xmlns="http://www.w3.org/2000/svg">
<path id="Vector" d="M13.6651 0.00152457C14.5693 -0.00194515 15.4735 0.00714246 16.3775 0.0287846L16.6178 0.0374582C16.8954 0.0473709 17.1692 0.0597617 17.5001 0.0746308C18.8184 0.136585 19.718 0.344752 20.5073 0.650807C21.3251 0.965535 22.014 1.39178 22.7029 2.08071C23.3328 2.69977 23.8203 3.4486 24.1315 4.27514C24.4376 5.06444 24.6458 5.96526 24.7077 7.28365C24.7226 7.61324 24.735 7.88832 24.7449 8.16588L24.7523 8.40626C24.7743 9.30979 24.7838 10.2136 24.7808 11.1174L24.7821 12.0417V13.665C24.7851 14.5692 24.7756 15.4734 24.7536 16.3773L24.7461 16.6177C24.7362 16.8953 24.7238 17.1691 24.7089 17.4999C24.647 18.8183 24.4364 19.7179 24.1315 20.5072C23.8213 21.3346 23.3337 22.0841 22.7029 22.7029C22.0833 23.3327 21.3341 23.8202 20.5073 24.1315C19.718 24.4376 18.8184 24.6458 17.5001 24.7077C17.1692 24.7226 16.8954 24.735 16.6178 24.7449L16.3775 24.7523C15.4735 24.7743 14.5693 24.7838 13.6651 24.7808L12.7408 24.782H11.1189C10.2147 24.7851 9.31048 24.7756 8.40654 24.7535L8.16617 24.7461C7.87202 24.7355 7.57795 24.7231 7.28395 24.7089C5.96558 24.647 5.06602 24.4363 4.2755 24.1315C3.44865 23.8209 2.6997 23.3333 2.08111 22.7029C1.45048 22.0837 0.962509 21.3344 0.651225 20.5072C0.345176 19.7179 0.137012 18.8183 0.0750589 17.4999C0.0612593 17.2059 0.0488685 16.9118 0.0378869 16.6177L0.0316917 16.3773C0.00884778 15.4734 -0.00147888 14.5692 0.000714942 13.665V11.1174C-0.00274325 10.2136 0.00634421 9.3098 0.0279745 8.40626L0.0366479 8.16588C0.0465605 7.88832 0.0589511 7.61324 0.0738199 7.28365C0.135773 5.96402 0.343936 5.06568 0.649986 4.27514C0.961453 3.4482 1.45038 2.69957 2.08235 2.08195C2.70051 1.45095 3.44899 0.962528 4.2755 0.650807C5.06602 0.344752 5.96434 0.136585 7.28395 0.0746308L8.16617 0.0374582L8.40654 0.0312629C9.31005 0.00842998 10.2138 -0.00189686 11.1176 0.00028557L13.6651 0.00152457ZM12.3914 6.19697C11.5705 6.18536 10.7555 6.33701 9.99376 6.64312C9.23201 6.94923 8.53869 7.40369 7.95409 7.98008C7.3695 8.55648 6.90529 9.24331 6.58845 10.0007C6.2716 10.758 6.10844 11.5708 6.10844 12.3918C6.10844 13.2128 6.2716 14.0255 6.58845 14.7829C6.90529 15.5403 7.3695 16.2271 7.95409 16.8035C8.53869 17.3799 9.23201 17.8343 9.99376 18.1405C10.7555 18.4466 11.5705 18.5982 12.3914 18.5866C14.0345 18.5866 15.6103 17.9339 16.7721 16.772C17.934 15.6101 18.5867 14.0343 18.5867 12.3912C18.5867 10.748 17.934 9.1722 16.7721 8.01033C15.6103 6.84846 14.0345 6.19697 12.3914 6.19697ZM12.3914 8.67514C12.8852 8.66604 13.3758 8.75543 13.8346 8.93809C14.2935 9.12074 14.7113 9.393 15.0638 9.73895C15.4162 10.0849 15.6962 10.4976 15.8873 10.953C16.0785 11.4084 16.177 11.8973 16.1771 12.3912C16.1771 12.885 16.0788 13.374 15.8878 13.8294C15.6968 14.2848 15.417 14.6977 15.0647 15.0437C14.7123 15.3898 14.2946 15.6622 13.8358 15.845C13.377 16.0278 12.8864 16.1174 12.3926 16.1084C11.4068 16.1084 10.4613 15.7168 9.76416 15.0197C9.06705 14.3225 8.67542 13.377 8.67542 12.3912C8.67542 11.4053 9.06705 10.4598 9.76416 9.76266C10.4613 9.06554 11.4068 8.6739 12.3926 8.6739L12.3914 8.67514ZM18.8965 4.33833C18.4968 4.35433 18.1187 4.52438 17.8415 4.81287C17.5644 5.10135 17.4096 5.4859 17.4096 5.88595C17.4096 6.28601 17.5644 6.67055 17.8415 6.95904C18.1187 7.24753 18.4968 7.41758 18.8965 7.43358C19.3073 7.43358 19.7012 7.27039 19.9917 6.97992C20.2821 6.68946 20.4453 6.2955 20.4453 5.88472C20.4453 5.47393 20.2821 5.07997 19.9917 4.78951C19.7012 4.49904 19.3073 4.33586 18.8965 4.33586V4.33833Z" fill="#8E7982"/>
</svg>
