<svg width="159" height="271" viewBox="0 0 159 271" fill="none" xmlns="http://www.w3.org/2000/svg">
<path d="M80.5591 57.9962C87.6458 57.9798 99.2608 57.2168 105.715 52.167C110.184 51.1998 114.397 49.7105 117.991 47.6779C112.949 54.4763 108.105 61.576 103.54 68.837C98.4974 72.0874 93.2414 74.0944 87.728 75.5793C86.5297 75.0742 85.2726 74.3484 84.3536 74.0046C76.3477 70.1293 70.2455 62.3115 60.395 66.1472C51.5075 69.6053 42.3632 79.6373 37.9531 87.9211C41.592 88.7149 45.6205 87.8665 49.2447 87.7182C55.7727 87.3792 62.2345 88.1224 68.5272 86.9006C74.9815 85.3988 84.0675 82.242 90.3967 78.0537C94.087 76.8233 97.4391 75.2109 100.813 73.2377C95.1166 82.4593 90.0596 91.8634 85.4805 101.73C85.2379 102.15 85.2159 102.511 84.9734 102.931C79.5263 106.882 74.285 109.831 68.7864 112.258C68.1469 112.076 67.5073 111.893 66.9485 111.57C59.2956 109.019 50.709 105.182 42.3799 105.415C35.9328 105.614 34.132 109.055 30.2435 113.532C27.2003 117.191 23.1866 118.981 19.0112 121.052C30.8398 125.08 41.169 132.351 54.0629 128.405C62.3036 126.067 70.6985 121.204 75.4836 113.884C77.8727 112.649 80.0633 111.113 82.1142 109.496C78.7699 116.902 75.6461 124.248 72.5812 131.814C72.3166 132.595 71.9932 133.155 71.7286 133.936C67.7517 136.308 64.0542 138.842 60.1582 141.074C59.5186 140.891 58.9599 140.568 58.1806 140.305C51.8068 138.119 44.014 131.939 37.7216 136.709C33.4801 139.862 31.4295 145.027 27.8276 148.362C25.2107 150.959 22.1232 151.791 18.9917 153.344C28.5265 155.861 44.8026 159.283 53.9179 154.463C58.3947 152.193 59.9602 147.868 62.0844 143.866C64.9366 142.152 67.5903 140.136 70.1043 138.04C67.0394 145.607 64.0553 153.033 61.2109 160.541C60.9904 160.6 60.7699 160.659 60.6081 160.939C57.8516 163.456 54.7789 165.23 51.5076 166.702C50.8092 166.299 50.1108 165.895 49.4124 165.492C43.3252 162.165 39.5759 159.626 32.9085 163.433C25.8001 167.358 21.0001 173.736 14.5681 178.425C19.0524 178.4 23.6544 178.816 28.0946 179.513C31.8953 180.026 36.446 182.467 40.2539 181.678C45.6056 180.473 48.5383 175.071 51.4271 170.39C54.2572 169.036 57.0285 167.462 59.5425 165.366C57.0436 171.952 54.6843 178.619 52.1854 185.205C52.1045 185.346 52.0237 185.486 52.0016 185.846C52.0016 185.846 52.0016 185.846 51.9208 185.986C51.5753 186.907 51.2299 187.828 50.8845 188.749C45.9078 190.917 41.1296 193.387 36.3294 196.217C35.4105 195.873 34.712 195.47 33.9328 195.207C27.559 193.021 20.9207 191.616 14.7312 195.885C7.77718 200.832 4.21988 210.542 0.456543 217.706C4.60266 217.299 8.62388 217.753 12.6891 217.486C20.3198 216.85 28.2298 216.375 32.6327 209.394C34.8525 206.195 36.6974 202.031 39.0201 198.331C42.7765 196.018 46.3932 193.625 49.951 191.011C46.9817 199.38 43.9316 207.889 40.9623 216.257C39.8155 217.276 38.2498 218.052 36.9045 218.769C31.0016 221.897 27.0616 224.85 25.9006 232.022C23.8285 244.644 26.3363 258.042 24.9847 270.706C28.4985 268.813 30.8284 263.81 32.9674 260.75C36.481 255.31 39.9136 250.009 42.17 243.843C44.8379 235.674 43.8008 227.793 40.9625 219.805C44.3361 210.736 47.6508 201.447 51.0244 192.378C51.0027 196.286 51.3411 200.216 52.0398 204.167C46.5933 215.214 48.9539 226.286 53.9169 237.368C55.4389 240.86 57.1006 244.434 58.8431 247.867C58.3792 237.703 67.7811 231.741 68.0524 222.562C68.2576 214.464 63.1114 211.12 58.1122 206.553C57.6343 206.09 57.0168 205.547 56.5389 205.084C55.3328 198.786 54.0679 192.267 53.663 185.872C53.7439 185.732 53.6042 185.651 53.6042 185.651C55.9415 179.345 58.3596 172.899 60.8365 166.673C61.2633 172.708 62.19 178.845 64.0798 184.604C63.4848 190.796 63.1692 197.149 66.1028 202.39C68.6393 207.029 73.0651 210.331 76.6675 214.091C79.4319 217.368 81.5935 221.043 84.5195 224.04C84.5265 219.189 84.3938 214.258 84.9815 209.369C85.4443 205.341 86.4291 201.055 85.1497 197.142C82.7305 189.397 74.879 186.544 68.7771 182.274C68.2184 181.952 67.7405 181.489 67.1818 181.166C65.3949 174.906 64.2697 168.468 63.2253 161.89C63.1665 161.67 63.1076 161.449 62.9679 161.368C66.1358 153.301 69.5241 145.174 72.8316 137.187C73.3318 140.837 74.3538 144.228 75.7362 147.64C76.1042 153.454 77.3911 159.612 78.5016 165.108C80.9358 177.344 88.596 178.592 97.7489 184.997C100.182 186.588 102.27 189.101 104.924 190.633C103.689 182.451 104.805 172.452 101.423 165.085C97.9232 157.276 89.7553 150.132 81.823 147.42C80.6247 146.915 79.2647 146.69 78.1473 146.045C76.5296 141.75 75.3531 137.336 74.8382 132.744C78.3662 124.698 81.8942 116.652 85.5619 108.686C86.7164 113.46 88.2312 118.256 90.4884 122.734C90.5037 130.772 90.8056 137.668 96.6945 144.242C101.091 149.208 106.009 153.915 110.766 158.902C113.81 162.34 117.221 168.044 121.294 170.022C120.242 164.747 119.411 159.412 118.639 154.298C117.676 147.58 117.521 139.461 114.05 133.536C110.028 125.986 100.714 123.409 93.8697 119.458C93.7301 119.377 93.5904 119.296 93.311 119.135C91.2155 114.377 89.3626 109.2 88.0316 103.763C88.1124 103.623 88.2741 103.343 88.355 103.203C93.2355 93.1368 98.6747 83.3932 104.592 74.1122C105.129 78.3435 106.026 82.5959 107.526 86.4495C107.306 93.6048 109.446 101.189 111.872 107.631C115.21 115.72 121.599 118.849 126.907 125.461C129.451 128.797 132.245 133.958 136.119 135.634C135.604 131.043 135.229 126.531 135.214 122.041C135.463 116.77 136.816 111.202 135.183 105.965C132.073 96.5137 120.876 90.4229 113.017 85.3253C112.179 84.8414 111.201 84.2769 110.305 83.5724C108.687 79.2774 107.591 74.7236 107.017 69.9109C111.156 63.7109 115.434 57.5915 119.712 51.4721C122.718 47.2327 126.085 43.0145 129.37 38.9363C128.952 42.2423 128.893 45.5695 128.974 48.9774C125.586 57.1042 123.55 66.759 126.668 74.9075C130.499 84.4015 137.314 93.5646 144.703 100.445C146.754 102.376 148.864 104.528 150.151 107.138C150.393 103.17 149.996 99.019 150.238 95.051C150.627 89.8607 152.34 84.314 151.347 79.2594C149.442 69.0102 140.759 60.8231 134.576 53.1454C134.098 52.6827 133.841 52.1607 133.363 51.6981C132.672 46.444 132.282 40.9906 132.333 35.4183C132.333 35.4183 132.414 35.2783 132.274 35.1976C141.484 24.0835 150.893 13.2707 158.846 1.43083C159.412 0.450526 158.155 -0.275267 157.391 0.403701C144.556 11.6661 133.788 25.8017 123.541 39.6786C118.748 44.7539 112.309 47.1979 105.435 48.4578C104.377 48.0334 103.318 47.6089 102.48 47.125C94.9299 44.073 89.3203 37.66 80.5134 37.4302C68.3837 37.1492 59.9671 45.9207 50.602 52.4641C60.9747 51.9174 70.3702 57.9021 80.5591 57.9962Z" fill="#83B197"/>
</svg>
