<svg width="32" height="32" viewBox="0 0 32 32" fill="none" xmlns="http://www.w3.org/2000/svg">
<g id="eva:pin-outline">
<g id="evaPinOutline0">
<g id="evaPinOutline1">
<g id="evaPinOutline2">
<path id="Vector" d="M15.9999 2.66675C13.1893 2.66661 10.4923 3.77576 8.49491 5.75314C6.49756 7.73051 5.36136 10.4163 5.33325 13.2267C5.33325 20.5334 14.7333 28.6667 15.1333 29.0134C15.3748 29.22 15.6821 29.3335 15.9999 29.3335C16.3177 29.3335 16.6251 29.22 16.8666 29.0134C17.3333 28.6667 26.6666 20.5334 26.6666 13.2267C26.6385 10.4163 25.5023 7.73051 23.5049 5.75314C21.5076 3.77576 18.8105 2.66661 15.9999 2.66675ZM15.9999 26.2001C13.7733 24.0801 7.99992 18.2001 7.99992 13.2267C7.99992 11.105 8.84277 9.07018 10.3431 7.56989C11.8434 6.0696 13.8782 5.22675 15.9999 5.22675C18.1217 5.22675 20.1565 6.0696 21.6568 7.56989C23.1571 9.07018 23.9999 11.105 23.9999 13.2267C23.9999 18.1601 18.2266 24.0801 15.9999 26.2001Z" fill="#8F7883"/>
<path id="Vector_2" d="M15.9999 8C15.0769 8 14.1747 8.27369 13.4073 8.78647C12.6398 9.29925 12.0417 10.0281 11.6885 10.8808C11.3353 11.7335 11.2429 12.6718 11.4229 13.5771C11.603 14.4823 12.0474 15.3139 12.7001 15.9665C13.3527 16.6191 14.1843 17.0636 15.0895 17.2437C15.9947 17.4237 16.9331 17.3313 17.7858 16.9781C18.6385 16.6249 19.3673 16.0268 19.8801 15.2593C20.3929 14.4919 20.6666 13.5896 20.6666 12.6667C20.6666 11.429 20.1749 10.242 19.2998 9.36684C18.4246 8.49167 17.2376 8 15.9999 8ZM15.9999 14.6667C15.6044 14.6667 15.2177 14.5494 14.8888 14.3296C14.5599 14.1098 14.3035 13.7975 14.1522 13.432C14.0008 13.0666 13.9612 12.6644 14.0384 12.2765C14.1155 11.8885 14.306 11.5322 14.5857 11.2525C14.8654 10.9727 15.2218 10.7823 15.6097 10.7051C15.9977 10.6279 16.3998 10.6675 16.7653 10.8189C17.1307 10.9703 17.4431 11.2266 17.6629 11.5555C17.8826 11.8844 17.9999 12.2711 17.9999 12.6667C17.9999 13.1971 17.7892 13.7058 17.4141 14.0809C17.0391 14.456 16.5304 14.6667 15.9999 14.6667Z" fill="#8F7883"/>
</g>
</g>
</g>
</g>
</svg>
