<svg width="280" height="564" viewBox="0 0 280 564" fill="none" xmlns="http://www.w3.org/2000/svg">
<path opacity="0.15" d="M229.721 376.406C219.7 385.988 204.269 402.737 201.934 418.599C196.905 425.999 192.944 433.791 190.592 441.52C188.567 425.084 185.855 408.489 182.53 392.042C185.292 380.633 190.033 370.699 195.843 361.158C198.223 360.257 200.983 359.59 202.75 358.838C219.323 353.531 238.516 356.378 247.301 337.655C255.232 320.766 254.658 294.215 249.734 276.526C243.506 280.31 238.942 286.946 234.006 292.045C225.212 301.331 215.052 308.994 207.783 319.214C200.662 330.049 192.044 346.778 188.724 361.251C185.154 367.973 182.578 374.779 180.458 382.127C176.092 361.374 170.574 341.226 163.754 321.066C163.531 320.144 163.075 319.603 162.852 318.68C165.243 305.734 168.692 294.485 173.211 283.628C174.363 283.024 175.516 282.42 176.743 282.124C191.029 275.416 208.374 269.271 219.863 257.706C228.732 248.728 226.641 241.422 226.113 229.832C225.491 220.543 228.764 212.591 231.888 204.024C209.691 214.271 185.246 217.901 172.295 240.885C163.771 255.314 158.433 273.529 161.526 290.358C159.806 295.33 158.774 300.462 158.048 305.52C152.799 290.514 147.317 275.89 141.453 261.033C140.775 259.569 140.478 258.339 139.799 256.876C142.236 248.15 144.058 239.572 146.569 231.154C147.722 230.55 148.948 230.253 150.408 229.575C162.389 224.075 181.769 222.321 184.252 207.074C186.01 196.885 181.949 186.799 182.555 177.214C182.76 170.004 186.014 164.66 188.357 158.235C171.449 167.53 143.767 184.635 137.352 203.762C134.07 213.018 137.684 221.258 140.072 229.794C138.343 236.071 137.301 242.507 136.566 248.869C130.703 234.012 124.914 219.462 118.818 204.986C119.051 204.604 119.283 204.223 119.134 203.608C119.646 196.323 121.608 189.665 124.258 183.166C125.792 182.795 127.325 182.424 128.859 182.054C141.974 178.559 150.711 177.098 155.026 162.71C159.805 147.559 158.004 132.046 160.794 116.725C154.473 122.809 147.389 128.427 140.158 133.429C134.078 137.828 124.337 140.508 120.005 146.762C114.046 155.689 117.177 167.301 119.398 177.831C117.213 183.566 115.409 189.536 114.674 195.898C109.331 183.193 103.681 170.562 98.3382 157.858C98.2639 157.55 98.1896 157.243 97.7342 156.702C97.7342 156.702 97.7342 156.702 97.6599 156.394C96.9072 154.623 96.1546 152.852 95.4019 151.081C99.5299 141.295 102.97 131.35 105.955 120.864C107.721 120.112 109.255 119.741 110.714 119.063C122.695 113.564 133.998 106.601 137.012 92.2019C140.192 75.8098 132.136 57.2511 127.806 42.023C122.48 48.1926 116.168 52.9729 110.767 58.8349C100.812 70.0292 90.2422 81.3717 93.4191 97.2038C94.5894 104.733 97.5906 113.121 99.2905 121.498C97.0867 129.843 95.1896 138.113 93.6736 146.616C86.5929 130.751 79.438 114.579 72.3573 98.7135C72.6086 95.7234 73.7801 92.5109 74.7191 89.6801C78.866 77.2858 80.4658 67.7856 72.4366 56.0555C58.3483 35.3743 36.7215 19.7697 21.5549 0C19.1281 7.42173 22.5753 17.6552 23.6712 24.8766C26.0306 37.3259 28.3156 49.4676 33.4356 61.2498C40.6744 76.4257 52.7749 86.1953 67.5711 93.686C75.0234 111.089 82.8567 128.725 90.309 146.128C85.0675 140.559 79.2868 135.446 72.967 130.789C65.7849 107.788 47.5038 95.2809 25.523 86.2717C18.6546 83.3748 11.4794 80.552 4.37863 78.0368C18.7466 91.8152 13.4647 112.946 25.4626 126.321C36.0943 138.073 47.8987 135.871 61.1436 135.6C62.4449 135.611 64.0529 135.548 65.3541 135.559C75.5588 142.857 86.1445 150.389 95.3452 158.906C95.4195 159.214 95.7263 159.14 95.7263 159.14C100.921 171.229 106.189 183.627 111.077 195.79C102.331 187.814 92.7402 180.367 82.2937 174.755C74.7848 165.177 66.6623 155.748 55.4348 152.277C45.5828 149.125 34.8567 150.415 24.6791 149.946C16.3419 149.031 8.32087 146.738 0.132324 146.439C6.66566 153.323 13.5057 160.132 19.2675 167.853C24.0442 174.185 28.4304 181.588 35.5218 185.407C49.3978 193.12 64.3723 186.572 78.7792 184.392C80.0061 184.096 81.3074 184.107 82.5343 183.81C93.5105 190.271 103.79 197.877 114.143 205.791C114.524 206.024 114.905 206.257 115.212 206.183C121.605 221.889 127.765 237.977 133.851 253.756C128.219 249.259 122.197 245.832 115.635 242.861C107.271 235.118 97.1404 228.127 88.1532 221.836C68.1992 207.78 55.6597 216.344 34.0493 219.614C28.4538 220.641 22.1056 219.896 16.2777 221.305C29.066 231.234 40.9706 246.91 55.702 252.788C71.1954 259.134 92.4059 258.24 107.306 251.384C109.686 250.483 111.916 248.967 114.37 248.374C122.456 252.279 130.077 256.947 137.001 262.76C142.855 278.921 148.709 295.083 154.256 311.319C146.179 306.11 137.564 301.357 128.325 298.056C117.461 286.686 107.731 277.32 90.517 275.947C77.5883 274.84 64.2691 274.804 50.8012 274.153C41.8505 273.387 29.3218 269.905 20.8819 272.596C29.488 278.653 37.8618 285.092 45.8545 291.298C56.2821 299.518 67.4529 310.815 80.3628 314.53C96.2467 319.805 112.922 310.892 127.952 307.26C128.259 307.186 128.566 307.112 129.179 306.964C138.566 310.879 148.176 315.717 157.396 321.626C157.47 321.934 157.619 322.549 157.693 322.857C164.355 343.705 169.79 364.85 173.924 385.984C167.455 380.712 160.448 375.896 153.124 372.459C143.784 362.022 130.521 354.16 118.393 348.303C102.75 341.343 89.4772 345.527 73.0352 343.316C64.9305 342.02 54.0097 338.475 46.2576 341.325C53.1814 347.138 59.7985 353.025 65.8765 359.368C72.6328 367.174 78.2271 376.889 87.6048 382.109C104.762 391.307 128.845 384.836 146.858 381.459C148.699 381.014 150.846 380.495 153.067 380.284C161.153 384.189 168.848 389.164 176.153 395.21C178.652 409.579 180.844 424.022 183.036 438.464C184.494 448.527 185.413 459.046 186.257 469.258C182.391 464.008 177.986 459.214 173.274 454.494C167.114 438.406 156.975 421.978 141.566 414.636C123.331 406.349 101.312 402.556 81.5608 402.773C76.0491 402.803 70.1563 402.6 64.8121 400.637C69.8213 406.587 75.983 411.933 80.9921 417.883C87.4417 425.763 92.4968 435.934 100.722 441.758C117.246 453.713 140.595 453.604 159.713 456.144C161.015 456.155 162.083 456.547 163.385 456.558C171.452 463.072 179.361 470.274 186.805 478.239C186.805 478.239 186.879 478.547 187.186 478.473C189.125 506.647 190.377 534.662 195.076 562.169C195.597 564.322 198.357 563.654 198.525 561.661C201.522 528.388 197.715 493.83 193.517 460.343C193.463 446.685 199.292 434.535 207.334 423.478C209.406 422.652 211.479 421.826 213.32 421.381C228.136 415.522 244.736 417.043 257.527 405.489C275.095 389.526 275.191 365.742 279.637 343.836C265.674 358.603 244.287 362.795 229.721 376.406Z" fill="#83B197"/>
</svg>
