<svg width="100" height="100" viewBox="0 0 100 100" fill="none" xmlns="http://www.w3.org/2000/svg">
<path d="M56.3733 66.3813C57.0312 66.1188 57.6827 65.8375 58.3249 65.5281C59.4983 64.9625 60.6562 64.2531 61.8671 63.3563L60.0093 60.8453C58.9577 61.6219 57.964 62.2344 56.9718 62.711C54.6624 63.8235 52.0983 64.5953 49.6155 65.3438C48.7296 65.611 47.8468 65.8766 46.978 66.1563C39.678 68.5047 32.0187 69.1078 24.8171 67.9C20.078 67.1047 14.9155 65.7844 12.564 62.0235L9.91553 63.6813C11.4608 66.1531 13.7874 67.7641 16.4171 68.8766C16.2296 70.1594 15.6796 72.2688 14.0546 73.0813L15.453 75.8766C18.0546 74.575 19.039 71.8281 19.4108 69.9063C20.078 70.0953 20.7483 70.2656 21.4249 70.4156C21.2562 71.8469 20.6718 74.6547 18.6312 76.6953L20.8405 78.9047C23.4202 76.325 24.239 72.936 24.4983 71.0047C25.5593 71.1781 26.6296 71.3031 27.7062 71.4031C27.8624 73.3828 27.8343 77.4563 25.3499 79.9406L27.5593 82.15C30.7687 78.9406 31.0077 74.1953 30.853 71.5735C31.2968 71.586 31.7374 71.6281 32.1827 71.6281C32.5765 71.6281 32.9749 71.5906 33.3702 71.5813C33.9593 73.4094 34.8452 77.6422 31.8624 80.9672L34.1874 83.0547C37.8312 78.9891 37.2983 74.1266 36.578 71.4188C37.2218 71.3625 37.8655 71.2703 38.5093 71.1891C38.6983 74.3703 39.2796 80.9031 40.9452 83.6266L43.6124 81.9969C42.4812 80.1453 41.828 74.5672 41.6108 70.7C42.0952 70.6078 42.5796 70.5172 43.0624 70.4125C43.1843 73.3063 44.053 78.536 48.3983 82.236L50.4249 79.8563C46.6374 76.6313 46.1843 71.711 46.1749 69.6219C46.7608 69.4563 47.353 69.3172 47.9343 69.1297C47.9718 69.1172 48.0108 69.1063 48.0483 69.0953C48.5249 72.0938 50.1733 77.5141 55.9186 79.8969L57.1155 77.0094C52.4655 75.0797 51.3405 70.3688 51.0671 68.1688C51.8437 67.9344 52.6233 67.6891 53.4062 67.436C54.1265 70.3578 56.3343 74.2406 61.5452 75.961L62.5249 72.9953C57.989 71.4969 56.7265 68.1391 56.3733 66.3813Z" fill="#8F7883"/>
<path d="M26.6014 46.9172C30.6873 45.8984 35.4514 45.825 41.1607 46.6906C42.5248 46.9 43.7639 47.1406 44.9451 47.425L45.6779 44.389C44.4092 44.0828 43.0873 43.8265 41.6326 43.6031C35.5061 42.6687 30.3389 42.7593 25.842 43.8875C18.2326 45.7922 12.2201 51.1672 9.76074 58.2656L12.7154 59.2875C14.8264 53.1906 20.0186 48.5656 26.6014 46.9172Z" fill="#8F7883"/>
<path d="M96.5395 69.6209L63.5626 34.1865L63.2925 33.8963C60.1314 30.4996 55.9308 28.6301 51.4601 28.6301C51.0424 28.6301 50.6435 28.8072 50.3499 29.1245L49.8898 29.6189L47.4401 26.9866C50.631 26.7554 53.8863 26.9073 57.2248 27.6278L66.9011 29.7066C67.6502 29.8686 68.3977 29.4282 68.674 28.6604C68.9504 27.8961 68.6725 27.0271 68.0176 26.6052L61.8227 22.613C55.0671 17.9677 44.1895 17.2556 36.4054 18.6139C29.207 19.8693 23.0701 22.3919 16.5721 25.063C13.3215 26.3994 9.95947 27.7813 6.46235 28.9844C3.96867 29.8433 2.51298 32.6544 3.14896 35.3812C3.48501 36.8221 4.37225 38.0607 5.58454 38.7761C6.32574 39.2131 7.1533 39.4375 7.98557 39.4375C8.51634 39.4375 9.04711 39.3464 9.55904 39.1625C12.7861 38.0067 15.5922 36.839 18.3058 35.7068C20.9863 34.5915 23.7579 33.4356 26.9112 32.3051C32.2911 30.3798 37.7716 28.4175 43.4467 27.4692L47.6693 32.0048L47.2092 32.4992C46.914 32.8147 46.7491 33.2433 46.7491 33.6921C46.7491 38.496 48.489 43.0097 51.6501 46.4063L51.9202 46.6965L84.8971 82.1309C85.2033 82.4599 85.6053 82.6253 86.0073 82.6253C86.4093 82.6253 86.8113 82.4599 87.1175 82.1309L89.148 79.9492L94.3191 85.5056C94.619 85.8279 95.021 86 95.4293 86C95.6319 86 95.836 85.9595 96.0307 85.8718C96.618 85.6119 96.9996 84.9943 96.9996 84.3126V77.5632C96.9996 77.1144 96.8347 76.6858 96.5395 76.3703L94.5091 74.1885L96.5395 72.0068C97.1535 71.347 97.1535 70.2806 96.5395 69.6209ZM43.1484 22.3751L41.2184 24.4488C35.9578 25.5118 30.8951 27.3224 25.9171 29.1059C22.6901 30.2617 19.8839 31.4294 17.1704 32.5616C14.4899 33.6769 11.7182 34.8328 8.56502 35.9633C8.07351 36.1388 7.55059 36.0882 7.0952 35.8199C6.6398 35.5516 6.32103 35.1061 6.1954 34.5645C5.96142 33.5554 6.49847 32.5177 7.42025 32.2005C11.0006 30.9704 14.4035 29.5699 17.6949 28.2183C24.0375 25.6114 30.0283 23.1479 36.9079 21.9482C38.9603 21.5904 41.2969 21.388 43.7278 21.388C48.8062 21.388 54.2945 22.2687 58.4512 24.4522L57.8403 24.3206C53.233 23.3318 48.8267 23.3284 44.5616 23.897L43.1484 22.3751ZM49.9039 34.3755L52.0961 32.02C55.0923 32.1684 57.9094 33.358 60.1927 35.4216L53.0681 43.0772C51.1476 40.6238 50.0421 37.595 49.9039 34.3755ZM86.0073 78.552L55.2509 45.5036L62.4524 37.7654L93.2088 70.8138L86.0073 78.552ZM93.8589 80.2394L91.3684 77.5632L92.2886 76.5745L93.8589 78.2618V80.2394Z" fill="#8F7883"/>
</svg>
