<svg width="98" height="61" viewBox="0 0 98 61" fill="none" xmlns="http://www.w3.org/2000/svg">
<path d="M63.9297 36.55L62.1953 33.95C59.0177 36.0705 55.9811 38.3952 53.1047 40.9093L52.6609 41.2984C48.3499 45.0726 42.9154 47.3213 37.198 47.6966C31.4806 48.072 25.7987 46.5531 21.0312 43.375C19.2685 42.1979 17.2914 41.3792 15.2125 40.9656L10.25 39.9687L9.625 43.0312L13.2734 43.7609L10.3953 46.6453L12.6047 48.8546L16.7844 44.675C17.6125 44.9959 18.4057 45.4006 19.1516 45.8828L14.9375 51.5L17.4375 53.375L21.8594 47.4781C22.4458 47.7906 23.0396 48.0802 23.6406 48.3468L20.9844 54.9828L23.8875 56.1421L26.5594 49.4687C27.2047 49.6765 27.8578 49.8593 28.5156 50.0218L27.1562 56.8125L30.2187 57.425L31.5859 50.5968C32.6973 50.7464 33.8163 50.8325 34.9375 50.8546V60.25H38.0625V50.7593C39.244 50.6473 40.4176 50.4631 41.5766 50.2078L42.7719 57.3812L45.8531 56.8687L44.6031 49.3859C45.3188 49.1515 46.0234 48.8911 46.7172 48.6046L49.1078 54.5843L52.0109 53.425L49.5391 47.2453C50.3557 46.7953 51.1521 46.3072 51.9281 45.7812L55.4703 51.6843L58.1484 50.075L54.4328 43.8812C54.525 43.8015 54.625 43.7343 54.7156 43.6546L55.1594 43.2656C55.6516 42.8359 56.1766 42.4406 56.6797 42.0156L61.9547 47.2906L64.1641 45.0812L59.1094 40.0265C60.6828 38.814 62.2812 37.6453 63.9297 36.55Z" fill="#8F7880"/>
<path d="M96.7422 38.6375L73.3047 23.0125C73.134 22.8986 72.9425 22.8194 72.7412 22.7795C72.5399 22.7396 72.3327 22.7398 72.1315 22.78C71.9302 22.8202 71.7388 22.8996 71.5683 23.0138C71.3978 23.1279 71.2514 23.2746 71.1375 23.4453L68.8797 26.8328L56.3344 18.4703L53.7344 16.7359V16.7375L49.8453 14.1438L46.5 12L51.0578 12.3234C55.5385 12.9724 59.8876 14.3295 63.9422 16.3438L70.1766 19.4688C70.4849 19.6231 70.8356 19.6712 71.1741 19.6054C71.5126 19.5396 71.8198 19.3638 72.0479 19.1052C72.276 18.8466 72.4121 18.5198 72.4351 18.1758C72.4581 17.8318 72.3667 17.4898 72.175 17.2031L68.2875 11.3719C66.5975 8.83975 64.3438 6.73363 61.7032 5.21876C55.106 1.47196 47.4247 0.0972682 39.9375 1.32344C29.0502 3.1342 18.4952 6.56439 8.62346 11.5L1.42659 15.0938C1.16566 15.2241 0.946431 15.425 0.793726 15.6735C0.64102 15.922 0.560931 16.2083 0.562523 16.5V25.875C0.562576 26.1516 0.63603 26.4232 0.775384 26.662C0.914738 26.9009 1.115 27.0985 1.35571 27.2347C1.59642 27.3709 1.86896 27.4407 2.1455 27.4371C2.42203 27.4335 2.69265 27.3565 2.92971 27.2141L6.06409 25.3391C14.2504 20.426 23.001 16.5211 32.125 13.7094C34.0113 13.1322 35.9358 12.6884 37.8844 12.3813L41.6157 12.4172L45.5063 15.0109L48.1063 16.7453L51.9969 19.3391L54.5969 21.0734L54.5969 21.0719L67.1406 29.4344L64.8828 32.8219C64.7689 32.9926 64.6898 33.1841 64.6499 33.3854C64.61 33.5867 64.6101 33.7939 64.6503 33.9951C64.6905 34.1964 64.77 34.3877 64.8841 34.5583C64.9983 34.7288 65.1449 34.8752 65.3157 34.9891L88.7532 50.6141C88.9239 50.728 89.1153 50.8071 89.3166 50.847C89.518 50.8869 89.7252 50.8868 89.9264 50.8466C90.1276 50.8064 90.319 50.7269 90.4895 50.6128C90.6601 50.4986 90.8065 50.352 90.9203 50.1813L97.1703 40.8063C97.2847 40.6358 97.3644 40.4444 97.4047 40.2431C97.4451 40.0418 97.4454 39.8346 97.4057 39.6332C97.3659 39.4318 97.2869 39.2402 97.173 39.0693C97.0592 38.8985 96.9128 38.7517 96.7422 38.6375ZM31.211 10.7188C21.8443 13.6039 12.8608 17.6111 4.45627 22.6531L3.68752 23.1219V17.4656L10.0219 14.2984C19.6116 9.50151 29.8653 6.16717 40.4422 4.40626C47.2223 3.29316 54.1791 4.53727 60.1531 7.93126C62.3715 9.20341 64.2657 10.9713 65.6875 13.0969L66.3125 14.0344L65.3422 13.55C58.7393 10.2771 51.4517 8.62416 44.0828 8.72813H41.6157L37.3688 5.82657L35.6344 8.42657L37.0406 9.36407C35.0695 9.6856 33.1219 10.1382 31.211 10.7188ZM72.8703 26.475L75.6828 28.35L71.1656 35.125L68.3531 33.25L72.8703 26.475ZM89.1922 47.1453L73.7625 36.8594L78.2797 30.0844L93.7078 40.3703L89.1922 47.1453Z" fill="#8F7880"/>
</svg>
