<svg width="80" height="70" viewBox="0 0 80 70" fill="none" xmlns="http://www.w3.org/2000/svg">
<path d="M79.7785 15.0179C80.1293 14.4854 80.0572 13.7805 79.6067 13.3293L74.8177 8.53909C68.0695 1.79212 58.4464 -1.22628 49.0528 0.458329L4.47981 8.45974C2.29486 8.85188 0.567629 10.5319 0.114509 12.705C-0.337956 14.8782 0.574843 17.1084 2.42142 18.3405L2.60634 18.4638C3.83128 19.2763 5.33228 19.5615 6.76967 19.2546L48.7387 10.1804C55.5296 8.7122 62.6038 9.30631 69.0551 11.886L78.1548 15.5267C78.7483 15.7654 79.4276 15.5523 79.7785 15.0179ZM70.0623 9.39221C63.112 6.61054 55.489 5.97053 48.1722 7.55481L6.20704 16.629C5.47786 16.7864 4.71653 16.6408 4.09685 16.2264L3.91325 16.1031C2.97815 15.4795 2.51519 14.351 2.74405 13.2506C2.97291 12.1503 3.84767 11.2998 4.95391 11.1017L49.5282 3.10295C58.0556 1.5731 66.7921 4.3128 72.9187 10.4381L73.0826 10.6034L70.0623 9.39221Z" fill="#8F7883"/>
<path d="M63.8846 69.3406H71.9424C72.684 69.3406 73.2854 68.7392 73.2854 67.9976V18.3078C73.286 17.7989 72.9981 17.3333 72.5431 17.1058L64.4852 13.0769C64.0689 12.869 63.5744 12.8913 63.1783 13.1366C62.7823 13.3812 62.5416 13.8133 62.5416 14.2789V29.8981L58.3357 34.8064C56.1251 37.3887 53.4189 39.5015 50.3775 41.0189L50.1487 41.133C46.607 42.8969 42.704 43.8163 38.7472 43.8189H34.6659C26.6402 43.8176 19.0834 40.0392 14.2676 33.6195L13.6577 32.8122C11.8774 30.4509 9.09438 29.0594 6.13696 29.0515V31.7375C8.24978 31.7427 10.2373 32.7368 11.5088 34.4234L12.1187 35.2293C12.2839 35.451 12.4669 35.6549 12.6387 35.87L12.2072 36.7323C11.1567 38.8503 9.30094 40.4595 7.05566 41.2005L7.9042 43.752C10.7842 42.8006 13.1718 40.7513 14.5495 38.0497C15.6623 39.1946 16.8709 40.2425 18.162 41.1815C17.3122 44.3173 15.6577 47.177 13.3626 49.4767L13.2479 49.5895L15.1417 51.4938L15.2584 51.3784C17.686 48.9482 19.4906 45.9678 20.5188 42.691C21.9136 43.4963 23.3739 44.1809 24.8847 44.7376C24.7641 47.7482 24.0119 50.6997 22.6768 53.4013L22.3936 53.9679L24.7975 55.1686L25.0795 54.602C26.4815 51.7849 27.3215 48.7219 27.5523 45.5835C29.7123 46.1481 31.9314 46.4524 34.1636 46.4904L33.0075 55.7443L35.6718 56.0774L36.8685 46.5101H38.7485C39.5662 46.5101 40.384 46.4622 41.1977 46.3908L42.4069 56.0774L45.0712 55.7443L43.8627 46.0334C45.3466 45.7593 46.807 45.3678 48.23 44.8622C48.8942 48.1154 50.1834 51.2085 52.0261 53.9705L54.2609 52.48C52.5828 49.9672 51.4149 47.1488 50.8247 44.1855L50.7506 43.815C50.9506 43.7212 51.1533 43.634 51.3533 43.5356L51.5821 43.4215C52.7271 42.836 53.8313 42.173 54.8871 41.4379C55.8091 44.5206 57.7776 47.1842 60.4537 48.9705L61.9442 46.7357C59.6281 45.194 57.9711 42.8425 57.2989 40.1422L57.1835 39.6838C58.3284 38.7264 59.396 37.6798 60.3757 36.5533L62.5416 34.0208V67.9976C62.5416 68.7392 63.1429 69.3406 63.8846 69.3406ZM65.2276 66.6546V29.0515H70.5994V66.6546H65.2276ZM65.2276 23.6797H70.5994V26.3656H65.2276V23.6797ZM70.5994 19.138V20.9937H65.2276V16.452L70.5994 19.138Z" fill="#8F7883"/>
</svg>
