<svg width="22" height="25" viewBox="0 0 22 25" fill="none" xmlns="http://www.w3.org/2000/svg">
<path id="Vector" d="M16.7745 3.88261C15.8647 2.80818 15.3633 1.42835 15.3637 0H11.251V17.0725C11.2193 17.9963 10.8422 18.8714 10.1992 19.5135C9.55623 20.1555 8.69747 20.5144 7.8038 20.5145C5.91382 20.5145 4.34328 18.9174 4.34328 16.9348C4.34328 14.5667 6.55269 12.7906 8.82864 13.5203V9.16956C4.23681 8.53623 0.217285 12.2261 0.217285 16.9348C0.217285 21.5196 3.89076 24.7826 7.79049 24.7826C11.9697 24.7826 15.3637 21.2717 15.3637 16.9348V8.27464C17.0314 9.51356 19.0337 10.1783 21.0869 10.1746V5.92029C21.0869 5.92029 18.5846 6.0442 16.7745 3.88261Z" fill="#8E7982"/>
</svg>
