<svg width="32" height="30" viewBox="0 0 32 30" fill="none" xmlns="http://www.w3.org/2000/svg">
<g id="twitter 1">
<path id="_x30_4.Twitter" d="M28.5772 7.56C27.638 7.95 26.6676 8.22 25.6346 8.34C26.6989 7.74 27.5128 6.78 27.8885 5.61C26.8867 6.18 25.7911 6.57 24.6328 6.81C23.6937 5.85 22.3476 5.25 20.8763 5.25C18.0276 5.25 15.7424 7.47 15.7424 10.17C15.7424 10.56 15.7737 10.92 15.8676 11.28C11.6102 11.1 7.85369 9.12 5.31804 6.15C3.50239 9.27 5.53717 11.85 6.88326 12.72C6.06934 12.72 5.25543 12.48 4.56674 12.12C4.56674 14.55 6.35108 16.56 8.66761 17.01C8.16674 17.16 7.03978 17.25 6.35108 17.1C7.00847 19.05 8.91804 20.49 11.1406 20.52C9.38761 21.84 6.82065 22.89 3.53369 22.56C5.81891 23.97 8.51108 24.78 11.4224 24.78C20.8763 24.78 26.0102 17.28 26.0102 10.8C26.0102 10.59 26.0102 10.38 25.9789 10.17C27.0433 9.42 27.9198 8.55 28.5772 7.56Z" fill="#8E7982"/>
</g>
</svg>
