<svg width="25" height="26" viewBox="0 0 25 26" fill="none" xmlns="http://www.w3.org/2000/svg">
<g clip-path="url(#clip0_11_195)">
<path d="M19.6356 4.23193H5.14703C2.3044 4.23193 0 6.53634 0 9.37897V16.6217C0 19.4643 2.3044 21.7687 5.14703 21.7687H19.6356C22.4782 21.7687 24.7826 19.4643 24.7826 16.6217V9.37897C24.7826 6.53634 22.4782 4.23193 19.6356 4.23193ZM16.1547 13.3527L9.37791 16.5848C9.19734 16.671 8.98876 16.5393 8.98876 16.3393V9.67302C8.98876 9.47014 9.20282 9.33865 9.38377 9.43036L16.1605 12.8645C16.362 12.9666 16.3585 13.2555 16.1547 13.3527Z" fill="#8E7982"/>
</g>
<defs>
<clipPath id="clip0_11_195">
<rect width="24.7826" height="24.7826" fill="white" transform="translate(0 0.608887)"/>
</clipPath>
</defs>
</svg>
